<?xml version="1.0" encoding="UTF-8"?>
<svg id="Layer_1" data-name="Layer 1" xmlns="http://www.w3.org/2000/svg" viewBox="0 0 231.53 231.53">
  <defs>
    <style>
      .cls-1 {
        fill: #fff;
        stroke-width: 0px;
      }
    </style>
  </defs>
  <path class="cls-1" d="M97.64,173.57c-4.89-4.42-10.64-7.67-16.82-9.58,6.56-4.32,10.91-11.74,10.91-20.17,0-13.31-10.82-24.13-24.13-24.13s-24.13,10.82-24.13,24.13c0,8.43,4.34,15.85,10.91,20.17-6.19,1.91-11.93,5.15-16.82,9.58-8.19,7.4-13.34,17.5-14.51,28.43-.09.84.18,1.68.75,2.31.56.63,1.37.99,2.21.99h83.2c.84,0,1.65-.36,2.21-.99.56-.63.84-1.47.75-2.3-1.17-10.93-6.32-21.03-14.51-28.43ZM49.41,143.82c0-10.02,8.16-18.18,18.18-18.18s18.18,8.16,18.18,18.18-8.15,18.18-18.18,18.18h0c-10.02,0-18.18-8.16-18.18-18.18h0ZM29.44,199.34c3.5-18.11,19.35-31.39,38.15-31.39h0c18.79,0,34.64,13.28,38.15,31.39H29.44ZM191.8,173.57c-4.89-4.42-10.64-7.67-16.82-9.58,6.56-4.32,10.91-11.74,10.91-20.17,0-13.31-10.82-24.13-24.13-24.13s-24.13,10.82-24.13,24.13c0,8.43,4.34,15.85,10.91,20.17-6.19,1.91-11.93,5.15-16.82,9.58-8.19,7.4-13.34,17.5-14.51,28.43-.09.84.18,1.68.75,2.3s1.37.99,2.21.99h83.2c.84,0,1.65-.36,2.21-.99s.84-1.47.75-2.31c-1.17-10.93-6.32-21.03-14.51-28.43h0ZM143.57,143.82c0-10.02,8.16-18.18,18.18-18.18s18.18,8.16,18.18,18.18-8.15,18.18-18.18,18.18h0c-10.02,0-18.18-8.16-18.18-18.18ZM123.6,199.34c3.5-18.11,19.35-31.39,38.15-31.39h0c18.79,0,34.64,13.28,38.15,31.39h-76.3ZM196.69,35.29h-77.65c-5.93,0-10.76,4.83-10.76,10.76v18.19c-.4.32-.73.74-.92,1.25l-1.59,4.13c-2.19.64-4.31,1.52-6.32,2.62l-.58-.26v-23.58c0-5.95-4.84-10.79-10.79-10.79h-53.7c-5.95,0-10.79,4.84-10.79,10.79v38.14c0,5.95,4.84,10.79,10.79,10.79h4.09l13.11,13.28c.57.58,1.34.88,2.12.88.38,0,.76-.07,1.13-.22,1.12-.46,1.85-1.55,1.85-2.75v-11.19h21.54v7.24c0,1.23.76,2.33,1.91,2.78l4.13,1.59c.64,2.2,1.52,4.31,2.62,6.32l-1.8,4.05c-.5,1.12-.26,2.44.62,3.31l6.41,6.41c.87.87,2.19,1.11,3.31.62l4.05-1.8c2.01,1.1,4.12,1.98,6.32,2.62l1.59,4.13c.44,1.15,1.55,1.91,2.78,1.91h9.06c1.23,0,2.33-.76,2.78-1.91l1.59-4.13c2.2-.64,4.31-1.52,6.32-2.62l4.05,1.8c1.13.5,2.44.26,3.31-.62l6.41-6.41c.87-.87,1.11-2.19.62-3.31l-1.8-4.05c1.1-2.01,1.98-4.12,2.62-6.32l4.13-1.59c1.15-.44,1.91-1.55,1.91-2.78v-9.06c0-.24-.04-.47-.09-.7h23.43v11.14c0,1.21.73,2.29,1.85,2.75.37.15.75.22,1.13.22.78,0,1.55-.31,2.12-.88l13.06-13.23h4.07c5.93,0,10.76-4.83,10.76-10.76v-38c0-5.93-4.83-10.76-10.76-10.76h0ZM53.7,91.39c-1.64,0-2.97,1.33-2.97,2.97v6.92l-8.89-9.01c-.56-.57-1.32-.88-2.12-.88h-5.34c-2.67,0-4.84-2.17-4.84-4.84v-38.14c0-2.67,2.17-4.84,4.84-4.84h53.7c2.67,0,4.84,2.17,4.84,4.84v22.07c-.3.14-.58.33-.83.58l-6.41,6.41c-.87.87-1.11,2.19-.62,3.31l1.8,4.05c-1.1,2.01-1.98,4.12-2.62,6.32l-.63.24h-29.92ZM145.18,102.54l-3.64,1.4c-.92.35-1.6,1.13-1.83,2.09-.63,2.65-1.68,5.17-3.11,7.5-.51.84-.58,1.87-.19,2.77l1.59,3.57-3.52,3.52-3.57-1.58c-.9-.4-1.93-.33-2.77.19-2.32,1.43-4.85,2.48-7.5,3.11-.95.23-1.74.91-2.09,1.83l-1.4,3.64h-4.98l-1.4-3.64c-.35-.92-1.13-1.6-2.09-1.83-2.65-.63-5.17-1.68-7.5-3.11-.83-.51-1.87-.58-2.77-.19l-3.57,1.59-3.52-3.52,1.58-3.57c.4-.9.33-1.93-.19-2.77-1.43-2.32-2.48-4.85-3.11-7.5-.23-.95-.91-1.74-1.83-2.09l-3.64-1.4v-4.98l3.64-1.4c.92-.35,1.6-1.13,1.83-2.09.63-2.65,1.68-5.17,3.11-7.5.51-.84.58-1.87.19-2.77l-1.59-3.57,3.52-3.52,3.57,1.59c.9.4,1.93.33,2.77-.19,2.33-1.43,4.85-2.48,7.5-3.11.95-.23,1.74-.91,2.09-1.83l1.4-3.64h4.98l1.4,3.64c.35.92,1.13,1.6,2.09,1.83,2.65.63,5.17,1.68,7.5,3.11.84.51,1.87.58,2.77.19l3.57-1.59,3.52,3.52-1.58,3.57c-.4.9-.33,1.93.19,2.77,1.43,2.33,2.48,4.85,3.11,7.5.23.95.91,1.74,1.83,2.09l3.64,1.4v4.98ZM201.51,84.05c0,2.65-2.16,4.81-4.81,4.81h-5.32c-.8,0-1.56.32-2.12.88l-8.84,8.95v-6.86c0-1.64-1.33-2.97-2.97-2.97h-33.12c-.52-1.39-1.14-2.73-1.86-4.04l1.8-4.05c.2-.44.27-.91.25-1.37h47.36c1.64,0,2.97-1.33,2.97-2.97s-1.33-2.97-2.97-2.97h-52.23l-2.4-2.4c-.87-.87-2.19-1.11-3.31-.62l-4.05,1.8c-2.01-1.1-4.12-1.98-6.32-2.62l-.8-2.07c.34.13.71.21,1.09.21h68.01c1.64,0,2.97-1.33,2.97-2.97s-1.33-2.97-2.97-2.97h-68.01c-1.43,0-2.62,1.01-2.91,2.35-.5-.37-1.11-.58-1.75-.58h-4.97v-17.53c0-2.65,2.16-4.81,4.81-4.81h77.65c2.65,0,4.81,2.16,4.81,4.81v38ZM194.85,53.14c0,1.64-1.33,2.97-2.97,2.97h-68.01c-1.64,0-2.97-1.33-2.97-2.97s1.33-2.97,2.97-2.97h68.01c1.64,0,2.98,1.33,2.98,2.97h0ZM73.7,60.02c0,4.19-2.85,6.76-5.14,8.82-2.2,1.98-3.56,3.3-3.68,5.32-.09,1.58-1.4,2.8-2.97,2.8-.06,0-.12,0-.18,0-1.64-.1-2.89-1.5-2.8-3.14.27-4.56,3.24-7.24,5.63-9.39,1.97-1.77,3.17-2.93,3.17-4.4,0-3.59-2.92-6.52-6.52-6.52s-6.52,2.92-6.52,6.52c0,1.64-1.33,2.97-2.97,2.97s-2.97-1.33-2.97-2.97c0-6.87,5.59-12.47,12.47-12.47s12.47,5.59,12.47,12.47ZM64.88,81.37c0,1.64-1.33,2.97-2.97,2.97s-2.97-1.33-2.97-2.97,1.33-2.97,2.97-2.97,2.97,1.33,2.97,2.97ZM114.67,81.4c-10.28,0-18.65,8.36-18.65,18.65s8.36,18.65,18.65,18.65,18.65-8.36,18.65-18.65c0-10.28-8.37-18.65-18.65-18.65ZM114.67,112.74c-7,0-12.7-5.7-12.7-12.7s5.7-12.7,12.7-12.7,12.7,5.7,12.7,12.7c0,7-5.7,12.7-12.7,12.7Z"/>
</svg>