<?xml version="1.0" encoding="UTF-8"?>
<svg id="Layer_1" data-name="Layer 1" xmlns="http://www.w3.org/2000/svg" viewBox="0 0 231.53 231.53">
  <defs>
    <style>
      .cls-1 {
        fill: #fff;
        stroke-width: 0px;
      }
    </style>
  </defs>
  <g id="Page-1">
    <g id="_006---Draw-Blueprint" data-name="006---Draw-Blueprint">
      <path id="Shape" class="cls-1" d="M207.93,41.83c.01-2.5-.99-4.91-2.77-6.67l-8.87-8.87c-1.75-1.77-4.14-2.77-6.63-2.77h-.03c-2.48,0-4.85,1-6.58,2.77l-40.25,40.25H63.54v-33.8c0-5.09-4.13-9.22-9.22-9.22h-6.14c-13.57.02-24.56,11.01-24.58,24.58v135.95c.77,13.46,11.98,23.95,25.47,23.81h149.65c5.09,0,9.22-4.13,9.22-9.22v-122.89c0-5.09-4.13-9.22-9.22-9.22h-11.67l18.13-18.13c1.76-1.74,2.76-4.11,2.76-6.58h0ZM133.52,100.33c-.65.09-1.3-.14-1.76-.61-.46-.45-.68-1.09-.61-1.73l1.16-10.45c.05-.22.11-.43.18-.65l12.1,12.1c-.2.04-.38.14-.59.17l-10.49,1.17ZM149.62,95.31l-13.44-13.45,33.49-33.49,13.44,13.44-33.48,33.5ZM173.99,44.03l4.56-4.55,13.43,13.44-4.55,4.56-13.44-13.44ZM29.74,48.1c.01-10.18,8.26-18.42,18.43-18.43h6.14c1.7,0,3.07,1.38,3.07,3.07v122.89c0,1.7-1.38,3.07-3.07,3.07h-6.14c-7.06,0-13.78,3.04-18.43,8.34V48.1ZM198.72,72.68c1.7,0,3.07,1.38,3.07,3.07v122.89c0,1.7-1.38,3.07-3.07,3.07H49.07c-10.14.17-18.64-7.64-19.32-17.76v-.68c.01-10.18,8.26-18.42,18.43-18.43h6.14c5.09,0,9.22-4.13,9.22-9.22v-82.95h73.12l-6.98,6.98c-1.95,1.92-3.17,4.45-3.47,7.17l-1.16,10.47c-.1,1.02,0,2.05.29,3.04h-52.58c-1.7,0-3.07,1.38-3.07,3.07s1.38,3.07,3.07,3.07h9.22v82.95c0,1.7,1.38,3.07,3.07,3.07s3.07-1.38,3.07-3.07v-43.01h33.8v24.58h-21.51c-1.7,0-3.07,1.38-3.07,3.07s1.38,3.07,3.07,3.07h61.45c3.39,0,6.14-2.75,6.14-6.14v-46.08c0-1.7-1.38-3.07-3.07-3.07s-3.07,1.38-3.07,3.07v15.36h-73.73v-33.8h45.19c.3,0,.6-.02.9-.05l10.5-1.2c2.66-.3,5.15-1.49,7.07-3.36l29.15-29.19h17.8ZM161.85,146.41v24.58h-33.8v-24.58h33.8ZM200.84,44.05l-4.51,4.51-13.43-13.43,4.51-4.51c.59-.61,1.4-.95,2.25-.95.86,0,1.69.35,2.29.96l8.89,8.87c.62.61.96,1.44.96,2.31,0,.85-.35,1.66-.95,2.25h0Z"/>
    </g>
  </g>
</svg>