<?xml version="1.0" encoding="UTF-8"?>
<svg id="Layer_1" data-name="Layer 1" xmlns="http://www.w3.org/2000/svg" viewBox="0 0 231.53 231.53">
  <defs>
    <style>
      .cls-1 {
        fill: #fff;
        stroke-width: 0px;
      }
    </style>
  </defs>
  <g id="_43" data-name="43">
    <path class="cls-1" d="M193.87,64.74c-.38-.38-33.91-33.91-33.54-33.54-.68-.68-1.85-1.09-2.64-1.09h-87.95c-4.87,0-8.84,3.96-8.84,8.84v11.85h-13.14c-4.87,0-8.84,3.96-8.84,8.84v140.74c0,4.9,3.99,8.88,8.88,8.88h116.34c4.87,0,8.84-3.99,8.84-8.88v-11.81h13.09c4.9,0,8.88-3.99,8.88-8.88v-112.3c0-.78-.4-1.95-1.1-2.65ZM161.43,62.49v-19.59l21.24,21.24-18.5,1.11c-1.34-.01-2.74-1.1-2.74-2.76ZM165.5,200.38c0,.78-.59,1.39-1.34,1.39H47.81c-.78,0-1.39-.61-1.39-1.39V59.64c0-.74.6-1.34,1.34-1.34h13.14v121.39c0,4.9,3.96,8.88,8.84,8.88h95.76v11.81ZM187.47,179.69c0,.77-.62,1.39-1.39,1.39h-116.34c-.73,0-1.34-.64-1.34-1.39V38.95c0-.74.6-1.34,1.34-1.34h84.2v24.89c0,5.66,4.6,10.26,10.26,10.26.08,0,.15,0,.22,0l23.04-1.38v108.32Z"/>
    <path class="cls-1" d="M83.13,56.93h55.09c2.07,0,3.75-1.68,3.75-3.75s-1.68-3.75-3.75-3.75h-55.09c-2.07,0-3.75,1.68-3.75,3.75s1.68,3.75,3.75,3.75Z"/>
    <path class="cls-1" d="M83.13,79.45h55.09c2.07,0,3.75-1.68,3.75-3.75s-1.68-3.75-3.75-3.75h-55.09c-2.07,0-3.75,1.68-3.75,3.75s1.68,3.75,3.75,3.75Z"/>
    <path class="cls-1" d="M171.62,162.07h-88.49c-2.07,0-3.75,1.68-3.75,3.75s1.68,3.75,3.75,3.75h88.49c2.07,0,3.75-1.68,3.75-3.75s-1.68-3.75-3.75-3.75Z"/>
    <path class="cls-1" d="M126.89,87.38c-7.49,0-14.74,2.54-20.59,7.12h-23.19c-2.07,0-3.75,1.68-3.75,3.75s1.68,3.75,3.75,3.75h16.12c-3.04,4.42-5.02,9.54-5.69,15.03h-10.42c-2.07,0-3.75,1.68-3.75,3.75s1.68,3.75,3.75,3.75h10.34c.57,5.41,2.49,10.55,5.47,15.03h-15.81c-2.07,0-3.75,1.68-3.75,3.75s1.68,3.75,3.75,3.75h22.62c5.94,4.87,13.38,7.57,21.16,7.57s15.24-2.7,21.16-7.57h23.59c2.07,0,3.75-1.68,3.75-3.75s-1.68-3.75-3.75-3.75h-16.79c2.98-4.48,4.9-9.63,5.47-15.03h11.32c2.07,0,3.75-1.68,3.75-3.75s-1.68-3.75-3.75-3.75h-11.37c-.65-5.44-2.65-10.58-5.71-15.03h17.08c2.07,0,3.75-1.68,3.75-3.75s-1.68-3.75-3.75-3.75h-24.16c-5.86-4.59-13.1-7.12-20.59-7.12ZM100.77,120.8c.12-14.45,11.96-25.93,26.12-25.93s26,11.46,26.12,25.93h0c0,.07.03.12.04.19h-.04c0,14.16-11.51,26.13-26.12,26.13s-26.12-11.38-26.12-26.32Z"/>
    <path class="cls-1" d="M135.28,112.03l-10.52,13.42-4.49-4.29c-1.49-1.43-3.87-1.38-5.3.12-1.43,1.5-1.38,3.87.12,5.3l5.87,5.61c2.46,2.35,6.42,2.07,8.52-.61l11.69-14.92c1.28-1.63.99-3.98-.64-5.26-1.63-1.27-3.98-.99-5.26.64Z"/>
  </g>
</svg>