<?xml version="1.0" encoding="UTF-8"?>
<svg id="Layer_1" data-name="Layer 1" xmlns="http://www.w3.org/2000/svg" viewBox="0 0 231.53 231.53">
  <defs>
    <style>
      .cls-1 {
        fill: #fff;
        stroke-width: 0px;
      }
    </style>
  </defs>
  <path class="cls-1" d="M77.47,136.76h-10.09c-3.14,0-5.7-2.56-5.7-5.7v-5.63c0-.33-.24-.62-.58-.72-3.5-.95-6.87-2.36-10.03-4.17-.29-.16-.62-.13-.84.08l-4.02,4.02c-1.08,1.08-2.51,1.67-4.03,1.67s-2.95-.59-4.03-1.67l-7.14-7.14c-1.08-1.08-1.67-2.51-1.67-4.03s.59-2.96,1.67-4.03l4.02-4.02c.22-.21.25-.55.08-.84-1.81-3.16-3.21-6.53-4.17-10.03-.1-.35-.38-.58-.72-.58h-5.63c-3.14,0-5.7-2.56-5.7-5.7v-10.09c0-3.14,2.56-5.7,5.7-5.7h5.63c.33,0,.62-.23.72-.58.95-3.5,2.36-6.87,4.17-10.03.16-.29.13-.62-.08-.84l-4.02-4.02c-1.08-1.08-1.67-2.51-1.67-4.03s.59-2.95,1.67-4.03l7.14-7.14c1.08-1.08,2.51-1.67,4.03-1.67s2.96.59,4.03,1.67l4.02,4.02c.21.21.55.25.84.08,3.16-1.81,6.53-3.21,10.03-4.17.35-.1.58-.38.58-.72v-5.63c0-3.14,2.56-5.7,5.7-5.7h10.09c3.14,0,5.7,2.56,5.7,5.7v5.63c0,.33.23.62.58.71,3.5.95,6.87,2.36,10.03,4.17.29.16.62.13.84-.08l4.02-4.02c2.23-2.23,5.84-2.23,8.06,0l.76.76c2.36,2.36-1.21,5.93-3.57,3.57-.46-.4-1.06-1.38-1.69-.76l-4.02,4.02c-1.82,1.82-4.66,2.18-6.91.89-2.78-1.6-5.76-2.83-8.85-3.68-2.53-.69-4.3-2.98-4.3-5.58v-5.62c0-.36-.3-.66-.66-.66h-10.09c-.36,0-.66.3-.66.66v5.63c0,2.6-1.77,4.89-4.3,5.58-3.09.84-6.06,2.08-8.85,3.67-2.25,1.29-5.1.93-6.91-.89l-4.02-4.02c-.16-.16-.34-.19-.47-.19s-.31.03-.46.19l-7.14,7.14c-.16.16-.19.34-.19.46s.03.31.19.47l4.02,4.02c1.82,1.82,2.18,4.66.89,6.91-1.6,2.79-2.83,5.76-3.68,8.85-.69,2.53-2.98,4.3-5.58,4.3h-5.63c-.36,0-.66.3-.66.66v10.09c0,.36.3.66.66.66h5.63c2.59,0,4.89,1.77,5.58,4.3.84,3.09,2.08,6.06,3.67,8.85,1.29,2.25.93,5.1-.89,6.91l-4.02,4.02c-.16.16-.19.34-.19.47s.03.31.19.47l7.14,7.14c.26.26.67.26.93,0l4.02-4.02c1.82-1.82,4.66-2.18,6.91-.89,2.78,1.6,5.76,2.83,8.85,3.68,2.53.69,4.3,2.98,4.3,5.58v5.62c0,.36.3.66.66.66h10.09c.36,0,.66-.3.66-.66v-5.62c0-2.6,1.77-4.89,4.3-5.58,3.22-.88,4.54,3.99,1.33,4.86-.35.1-.58.38-.58.72v5.62c0,3.14-2.56,5.7-5.7,5.7Z"/>
  <path class="cls-1" d="M48.66,83.23c0-16.67,16.76-28.1,32.21-22.22,3.11,1.19,1.32,5.9-1.8,4.71-12.19-4.65-25.38,4.4-25.38,17.5,0,10.66,8.97,19.33,19.84,18.69,3.32-.2,3.63,4.84.3,5.03-13.7.81-25.18-10.12-25.18-23.72Z"/>
  <path class="cls-1" d="M158.43,141.67l-25.55-4.97v-6.31c7.17-4.89,11.06-11.83,11.9-19.61,3.72-.3,6.66-3.42,6.66-7.22v-5.18c6.07-2.64,5.25-11.5-1.17-12.99v-2c0-17.98-14.58-32.56-32.56-32.56h-2.73c-17.98,0-32.56,14.58-32.56,32.56v2c-6.42,1.49-7.24,10.35-1.17,12.99v5.18c0,3.8,2.94,6.92,6.66,7.22.74,6.79,3.92,13.01,8.94,17.33.96.83,1.95,1.59,2.96,2.28v6.31l-25.55,4.97c-13.48,2.62-23.98,10.22-23.98,24.24v25.65c0,5.67,4.6,10.27,10.27,10.27h111.57c5.67,0,10.27-4.6,10.27-10.27v-25.65c0-13.97-10.44-21.61-23.98-24.24ZM137.44,142.72c-1.83,2.66-4.63,6.72-7.65,11.1-1.23,1.78-3.44,2.01-4.31,1.49l-3.98-2.39c3.88-2.29,9.26-6.23,10.89-11.19l5.05.98ZM116.35,149.99c-3.83-1.93-11.46-6.69-11.48-11.19v-5.63c7.34,3.16,15.62,3.17,22.97,0v5.61c0,4.51-7.65,9.28-11.49,11.21ZM87.47,83.38c0-10.34,5.74-19.37,14.19-24.07v3.16c0,3.33,5.04,3.34,5.04,0v-5.33c2.26-.72,4.65-1.15,7.12-1.25v12.47c0,3.33,5.04,3.34,5.04,0v-12.47c2.47.1,4.86.53,7.12,1.25v5.33c0,3.33,5.04,3.34,5.04,0v-3.16c8.46,4.7,14.19,13.73,14.19,24.07v1.82h-57.76v-1.82ZM83.99,90.25h64.73c2.42,0,2.41,3.65,0,3.65h-64.73c-2.42,0-2.41-3.65,0-3.65ZM92.8,108.22c-.03-1.37-1.15-2.47-2.52-2.47-.42-.1-3.98.66-3.98-2.2v-4.62h60.11v4.62c0,2.85-3.66,2.12-3.98,2.2-1.37,0-2.49,1.1-2.52,2.47-.14,6.3-2.81,12.16-7.35,16.06-9.63,8.29-22.77,8.29-32.4,0-4.54-3.91-7.21-9.76-7.35-16.06ZM100.31,141.74c1.63,4.95,7.01,8.89,10.89,11.19-3.99,2.14-3.71,2.78-5.52,2.56-1.13-.14-2.14-.76-2.79-1.7-3.02-4.37-5.8-8.42-7.63-11.07l5.05-.98ZM71.22,196.78h-10.66c-2.89,0-5.23-2.34-5.23-5.23v-25.65c0-7.56,3.43-12.78,10.96-16.39.3,1.34,4.92,13.88,4.92,31.4v15.86ZM113.83,196.78h-37.57v-15.86c0-18.99-4.79-31.21-5.26-33.28,2.94-.98.76-.22,18.87-3.87,5.2,7.56,14.92,21.67,20.64,29.81,2.17,3.09,3.32,6.72,3.32,10.5v12.7ZM116.35,173.54c-.5-.98-1.08-1.94-1.72-2.85-1.94-2.75-4.45-6.36-7.07-10.14.78-.17,1.54-.47,2.25-.9l6.54-3.92,6.54,3.92c.71.43,1.47.73,2.25.9-2.62,3.78-5.13,7.39-7.07,10.14-.64.92-1.22,1.87-1.72,2.85ZM177.37,191.55c0,2.89-2.34,5.23-5.23,5.23h-10.66v-9.51c0-3.33-5.04-3.34-5.04,0v9.51h-37.57v-12.7c0-3.78,1.15-7.41,3.32-10.5,3.26-4.63,16.67-23.98,20.64-29.81,18.1,3.64,15.92,2.89,18.86,3.87-.37,1.55-4.61,13.08-5.2,29.44-.12,3.34,4.92,3.5,5.04.18.57-15.83,4.45-26.01,4.86-27.75,7.53,3.61,10.96,8.83,10.96,16.39v25.65Z"/>
</svg>