<?xml version="1.0" encoding="UTF-8"?>
<svg id="Layer_1" data-name="Layer 1" xmlns="http://www.w3.org/2000/svg" viewBox="0 0 231.53 231.53">
  <defs>
    <style>
      .cls-1 {
        fill: #fff;
        stroke-width: 0px;
      }
    </style>
  </defs>
  <path class="cls-1" d="M131.32,189.53h42.08c1.42,0,2.56-1.15,2.56-2.56v-42.08c0-1.42-1.15-2.56-2.56-2.56h-42.08c-1.42,0-2.56,1.15-2.56,2.56v42.08c0,1.42,1.15,2.56,2.56,2.56ZM154.93,147.45h15.92v15.92h-15.92v-15.92ZM154.93,168.49h15.92v15.92h-15.92v-15.92ZM133.89,147.45h15.92v15.92h-15.92v-15.92ZM133.89,168.49h15.92v15.92h-15.92v-15.92Z"/>
  <path class="cls-1" d="M152.78,45.26c5.97.34,9.18,1.52,9.51,3.53.85,5.07,1.55,10.7,1.56,10.76.4,3.03,4.81,2.81,5.09,0,0-.06.7-5.69,1.56-10.76.34-2.03,6-3.46,9.77-3.71,3.35-.37,2.99-5.22-.26-5.13-5.97-.34-9.17-1.53-9.51-3.53-.85-5.07-1.55-10.71-1.56-10.76-.56-2.66-4.12-3.3-5.09,0,0,.06-.7,5.68-1.56,10.76-.34,2.03-5.59,3.52-9.77,3.71-1.42.09-2.49,1.31-2.41,2.72.09,1.4,1.27,2.47,2.67,2.41ZM166.35,39.79c.75,1.23,1.82,2.24,3.09,2.94-1.19.66-2.21,1.58-2.99,2.69-.75-1.23-1.82-2.24-3.09-2.94,1.19-.66,2.21-1.58,2.99-2.69Z"/>
  <path class="cls-1" d="M178.85,79.88s4.52,1.37,5.91,3.04c1.18,1.27,2.58,8.6,2.62,9.08.31,1.38,1.69,2.25,3.07,1.93.96-.22,1.71-.97,1.93-1.93.06-.47,1.52-7.81,2.61-9.08,1.04-1.46,5.91-3.04,5.91-3.04,2.4-.77,2.07-4.82-.77-4.96-1.73.02-3.41-.51-4.81-1.53-1.49-.89-2.64-5.18-2.9-7.92-.13-1.41-1.38-2.45-2.79-2.32-1.23.11-2.2,1.09-2.32,2.32-.25,2.74-1.4,7.03-2.9,7.92-.52.44-1.96,1.29-4.81,1.53-1.42.1-2.49,1.32-2.39,2.74.07.99.7,1.85,1.62,2.22h0ZM189.87,74.77c.73,1.3,1.77,2.39,3.03,3.19-1.32.91-2.36,2.16-3.03,3.62-.64-1.47-1.69-2.73-3.03-3.62,1.3-.74,2.36-1.85,3.03-3.19h0Z"/>
  <path class="cls-1" d="M28.46,55.76c2.6.16,10.52.64,11.16,4.79.98,6.24,1.77,13.16,1.78,13.23.17,1.41,1.45,2.41,2.85,2.24,1.17-.14,2.1-1.07,2.24-2.24,0-.07.8-6.99,1.78-13.23.5-3.23,8.08-4.91,11.46-5,1.41-.11,2.47-1.35,2.36-2.76-.1-1.26-1.1-2.26-2.36-2.36-3.72-.23-10.88-.84-11.46-4.8-1.05-7-1.78-13.16-1.78-13.23-.17-1.41-1.45-2.41-2.86-2.24-1.17.14-2.09,1.07-2.24,2.24,0,.07-.8,6.99-1.78,13.23-.5,3.23-7.47,4.64-11.46,5-1.42.12-2.47,1.36-2.35,2.78.11,1.37,1.28,2.4,2.65,2.36ZM43.92,48.76c.99,1.97,2.62,3.54,4.62,4.46-1.9.91-3.49,2.37-4.55,4.19-.99-1.97-2.62-3.54-4.62-4.46,1.9-.91,3.49-2.37,4.55-4.19h0Z"/>
  <path class="cls-1" d="M43.67,168.6c-1.73,0-3.42-.54-4.83-1.54-1.49-.9-2.79-5.19-2.91-7.95-.15-1.41-1.41-2.43-2.82-2.28-1.21.13-2.16,1.08-2.28,2.28-.12,2.76-1.4,7.05-2.91,7.95-.13.08-1.53,1.26-4.83,1.54-1.69-.06-4.18,2.93-.77,4.96,0,0,4.7,1.46,5.93,3.05.91,1,1.84,5.44,2.3,7.57.14.5.25,1.02.33,1.54.3,1.38,1.66,2.26,3.04,1.96.98-.21,1.75-.98,1.96-1.96.06-.47.21-.98.33-1.53.45-2.14,1.39-6.58,2.3-7.58,1.38-1.62,5.93-3.05,5.93-3.05,2.53-.82,1.97-4.88-.77-4.96h0ZM33.38,175.29c-.66-1.48-1.72-2.74-3.05-3.65,1.31-.75,2.37-1.87,3.05-3.21.69,1.34,1.75,2.45,3.05,3.21-1.33.92-2.38,2.18-3.05,3.65Z"/>
  <path class="cls-1" d="M208.28,117.62l-37.76-32c1.37-.38,2.18-1.8,1.8-3.17-.29-1.05-1.21-1.81-2.3-1.89-4.84-.21-7.89-1.67-9.97-4.09-3.85-4.49-4.14-11.59-4.81-15.25-.11-1.33-1.22-2.34-2.55-2.34h0c-1.33,0-2.44,1.02-2.55,2.35-.19,2.11-.53,4.21-1.01,6.27l-15.54-13.17c-6.35-5.41-15.68-5.41-22.02,0l-26,22.04v-6.54c0-1.42-1.15-2.56-2.56-2.56h-26.65c-1.42,0-2.56,1.15-2.56,2.56v33.47l-16.92,14.34c-3.27,2.28-4.76,12.25,4.78,13.02h11.04v80.26c0,1.42,1.15,2.56,2.56,2.56h134.66c1.42,0,2.56-1.15,2.56-2.56v-80.26h11.04c4.07.01,7.39-3.28,7.4-7.36,0-2.18-.95-4.26-2.62-5.66ZM152.69,73.54c1.38,3.49,2.31,6.91,9.11,10.32-3.02,2.21-6.66,2.64-9.11,12.68-2.04-9.11-6.52-11.11-9.11-12.68,2.44-1.21,7-3.34,9.11-10.32h0ZM58.9,72.37h21.53v8.32l-21.53,18.24v-26.56ZM49.51,125.51h-7.88c-1.24,0-2.26-.99-2.27-2.24,0-.67.29-1.32.81-1.75l74.7-63.31c6.8-4.83,12.35-2.27,15.39,0l17.21,14.59c-1.17,3.94-4.51,5.79-6.35,6.52l-12.49-10.58c-3.5-2.98-8.65-2.98-12.15,0l-66.98,56.76ZM107.36,208.34h-28.51v-35.9c-.05-7.87,6.3-14.29,14.17-14.34,7.87-.05,14.29,6.3,14.34,14.17,0,.06,0,.11,0,.17v35.9ZM187.33,208.34h-74.85v-35.9c.06-10.7-8.58-19.42-19.28-19.48-10.7-.06-19.42,8.58-19.48,19.28,0,.07,0,.13,0,.2v35.9h-15.93v-77.7h129.53v77.7ZM57.44,125.51l62.36-52.85c1.59-1.36,3.93-1.36,5.52,0l9.44,8c-1.28.28-3.35,2.99-.24,4.82,2.38,1.16,8.24,2.89,10.72,6.11,2.34,2.46,4.85,16.87,4.92,17.72.25,2.84,4.77,2.8,5.02,0,.07-.85,1.42-7.23,1.99-9.65l30.5,25.85H57.44ZM203.5,125.51h-7.88l-36.87-31.25c1.09-3.49,4.43-5.4,6.49-6.4l39.72,33.67c1.69,1.1.8,4-1.46,3.98h0Z"/>
</svg>