<?xml version="1.0" encoding="UTF-8"?>
<svg id="Layer_1" data-name="Layer 1" xmlns="http://www.w3.org/2000/svg" viewBox="0 0 510.42 315.82">
  <defs>
    <style>
      .cls-1 {
        fill: #ffebe1;
        stroke-width: 0px;
      }
    </style>
  </defs>
  <g>
    <path class="cls-1" d="M62.08,38.52v-12.04h48.61v12.04h-48.61ZM80.13,92.78V31.91h12.49v60.87h-12.49Z"/>
    <path class="cls-1" d="M117.98,92.78V26.48h12.49v66.3h-12.49ZM123.77,65.92v-12.04h38.62v12.04h-38.62ZM154.28,92.78V26.48h12.49v66.3h-12.49Z"/>
    <path class="cls-1" d="M181.36,92.78V26.48h12.49v66.3h-12.49ZM185.87,38.52v-12.04h39.9v12.04h-39.9ZM185.87,65.88v-12.04h34.88v12.04h-34.88ZM185.87,92.78v-12.04h39.9v12.04h-39.9Z"/>
  </g>
  <g>
    <path class="cls-1" d="M84.63,149.96l12.68-44.23h10.03l12.68,44.23,8.53-44.23h12.86l-15.28,66.3h-11.76l-11.76-46.33-12.31,46.33h-11.76l-15.28-66.3h12.86l8.53,44.23Z"/>
    <path class="cls-1" d="M138.66,172.03l25.35-66.3h7.93l25.35,66.3h-13.45l-15.87-45.28-15.87,45.28h-13.45ZM150.84,161.4v-12.04h34.88v12.04h-34.88Z"/>
    <path class="cls-1" d="M205.51,172.03v-66.3h12.49v66.3h-12.49ZM211.07,172.03v-12.04h38.85v12.04h-38.85Z"/>
    <path class="cls-1" d="M259.04,172.03v-66.3h12.49v66.3h-12.49ZM264.6,172.03v-12.04h38.85v12.04h-38.85Z"/>
  </g>
  <g>
    <path class="cls-1" d="M70.08,251.28v-66.35h12.49v66.35h-12.49ZM75.05,224.6v-12.04h23.07c1.94,0,3.5-.71,4.67-2.14,1.17-1.43,1.77-3.31,1.8-5.65,0-2.34-.59-4.22-1.76-5.65-1.17-1.43-2.74-2.14-4.72-2.14h-23.07v-12.04h24.08c3.68,0,6.89.82,9.64,2.46,2.75,1.64,4.89,3.95,6.41,6.93,1.52,2.98,2.28,6.46,2.28,10.44s-.77,7.46-2.3,10.44c-1.54,2.98-3.67,5.29-6.41,6.93-2.74,1.64-5.94,2.46-9.62,2.46h-24.08ZM105.1,251.28l-16.1-28.73,13.36-2.1,17.87,30.82h-15.14Z"/>
    <path class="cls-1" d="M130.95,251.28v-66.3h12.49v66.3h-12.49ZM135.47,197.01v-12.04h39.9v12.04h-39.9ZM135.47,224.37v-12.04h34.88v12.04h-34.88ZM135.47,251.28v-12.04h39.9v12.04h-39.9Z"/>
    <path class="cls-1" d="M215.86,229.66l12.63-44.69h16.46v66.3h-11.35v-51.48l.46,2.92-12.68,41.17h-11.03l-12.68-40.26.46-3.83v51.48h-11.35v-66.3h16.46l12.63,44.69Z"/>
    <path class="cls-1" d="M282.39,251.96c-4.86,0-9.11-1.01-12.74-3.03-3.63-2.02-6.45-4.87-8.46-8.55-2.01-3.68-3.01-7.96-3.01-12.86v-18.79c0-4.92,1-9.22,3.01-12.88,2.01-3.66,4.83-6.51,8.46-8.53,3.63-2.02,7.88-3.03,12.74-3.03s9.11,1.01,12.74,3.03c3.63,2.02,6.45,4.86,8.46,8.53,2.01,3.66,3.01,7.96,3.01,12.88v18.79c0,4.89-1,9.18-3.01,12.86-2.01,3.68-4.83,6.53-8.46,8.55-3.63,2.02-7.88,3.03-12.74,3.03ZM282.39,239.47c3.4,0,6.13-1.06,8.18-3.19,2.05-2.13,3.08-4.94,3.08-8.44v-19.42c0-3.53-1.03-6.35-3.08-8.46-2.05-2.11-4.78-3.17-8.18-3.17s-6.13,1.06-8.18,3.17c-2.05,2.11-3.08,4.93-3.08,8.46v19.42c0,3.5,1.03,6.31,3.08,8.44,2.05,2.13,4.78,3.19,8.18,3.19Z"/>
    <path class="cls-1" d="M335.05,251.28l-22.07-66.3h12.86l14.09,44.23,14.09-44.23h12.86l-22.07,66.3h-9.76Z"/>
    <path class="cls-1" d="M375.09,251.28v-66.3h12.49v66.3h-12.49ZM379.6,197.01v-12.04h39.9v12.04h-39.9ZM379.6,224.37v-12.04h34.88v12.04h-34.88ZM379.6,251.28v-12.04h39.9v12.04h-39.9Z"/>
    <path class="cls-1" d="M430.9,251.28v-66.35h12.49v66.35h-12.49ZM435.87,224.6v-12.04h23.07c1.94,0,3.5-.71,4.67-2.14,1.17-1.43,1.77-3.31,1.8-5.65,0-2.34-.59-4.22-1.76-5.65-1.17-1.43-2.74-2.14-4.72-2.14h-23.07v-12.04h24.08c3.68,0,6.89.82,9.64,2.46,2.75,1.64,4.89,3.95,6.41,6.93,1.52,2.98,2.28,6.46,2.28,10.44s-.77,7.46-2.3,10.44c-1.54,2.98-3.67,5.29-6.41,6.93-2.74,1.64-5.94,2.46-9.62,2.46h-24.08ZM465.92,251.28l-16.1-28.73,13.36-2.1,17.87,30.82h-15.14Z"/>
  </g>
  <path class="cls-1" d="M26.78,26.32v261.42h24.27V26.32h-24.27ZM46.76,283.44h-15.67v-25.89l15.67-13.25v39.14ZM46.76,238.67l-15.67,13.25v-34.48l15.67-13.25v34.48ZM46.76,198.56l-15.67,13.25v-34.47l15.67-13.25v34.47ZM46.76,158.46l-15.67,13.25v-34.47l15.67-13.26v34.48ZM46.76,118.35l-15.67,13.25v-34.47l15.67-13.25v34.47ZM46.76,78.25l-15.67,13.25v-34.47l15.67-13.25v34.47ZM31.08,51.4v-20.78h15.67v7.53l-15.67,13.25Z"/>
  <rect class="cls-1" x="243.08" y="48.95" width="24.27" height="456.85" transform="translate(532.58 22.16) rotate(90)"/>
</svg>