<?xml version="1.0" encoding="UTF-8"?>
<svg id="Layer_1" data-name="Layer 1" xmlns="http://www.w3.org/2000/svg" viewBox="0 0 410.84 263.76">
  <defs>
    <style>
      .cls-1 {
        fill: #a94e31;
      }

      .cls-1, .cls-2 {
        stroke-width: 0px;
      }

      .cls-2 {
        fill: none;
      }
    </style>
  </defs>
  <g>
    <polygon class="cls-1" points="95.45 86.09 121.59 86.09 121.59 164.65 139.68 164.65 139.68 86.09 165.82 86.09 165.82 68.67 95.45 68.67 95.45 86.09"/>
    <polygon class="cls-1" points="253.95 132.7 235.6 68.67 221.08 68.67 202.72 132.7 190.38 68.67 171.76 68.67 193.88 164.65 210.91 164.65 228.73 97.58 245.77 164.65 262.8 164.65 284.91 68.67 266.3 68.67 253.95 132.7"/>
    <path class="cls-1" d="M347.49,164.65h21.92l-22.94-39.55c2.26-.59,4.36-1.47,6.3-2.63,3.96-2.38,7.05-5.72,9.27-10.03,2.22-4.31,3.33-9.35,3.33-15.12s-1.1-10.8-3.3-15.12c-2.2-4.31-5.29-7.66-9.27-10.03-3.98-2.38-8.64-3.56-13.96-3.56h-42.05v96.05h18.09v-38.62h10.97l21.64,38.62ZM314.88,86.03h22.51c2.86,0,5.14,1.03,6.83,3.1,1.69,2.07,2.54,4.8,2.54,8.19-.04,3.39-.91,6.12-2.61,8.19-1.69,2.07-3.95,3.1-6.77,3.1h-22.51v-22.58Z"/>
  </g>
  <g>
    <path class="cls-1" d="M21.11,23.83v9.52h.02v161.56h9.59v-14.81l35.04-29.63v44.44h9.61V23.83H21.11ZM65.76,137.9l-35.04,29.63v-77.07l35.04-29.63v77.07ZM65.76,48.23l-35.04,29.63v-44.51h35.04v14.88Z"/>
    <rect class="cls-1" x="21.13" y="194.91" width="368.84" height="44.28"/>
  </g>
  <rect class="cls-2" x="21.08" y="24.57" width="368.88" height="214.62"/>
</svg>